<svg version="1.1" viewBox="0.0 0.0 256.0 256.0" fill="none" stroke="none" stroke-linecap="square" stroke-miterlimit="10" xmlns:xlink="http://www.w3.org/1999/xlink" xmlns="http://www.w3.org/2000/svg"><clipPath id="p.0"><path d="m0 0l256.0 0l0 256.0l-256.0 0l0 -256.0z" clip-rule="nonzero"/></clipPath><g clip-path="url(#p.0)"><path fill="#000000" fill-opacity="0.0" d="m0 0l256.0 0l0 256.0l-256.0 0z" fill-rule="evenodd"/><path fill="#a0d3ac" d="m89.34436 66.67977c4.947998 0 9.277496 4.3306656 9.277496 9.898666c0 5.568001 -4.3294983 9.898666 -9.277496 9.898666c-5.566498 0 -9.896004 -4.3306656 -9.896004 -9.898666c0 -5.568001 4.329506 -9.898666 9.896004 -9.898666zm77.3125 0c4.947998 0 9.277496 4.3306656 9.277496 9.898666c0 5.568001 -4.3294983 9.898666 -9.277496 9.898666c-5.566498 0 -9.895996 -4.3306656 -9.895996 -9.898666c0 -5.568001 4.3294983 -9.898666 9.895996 -9.898666zm-92.45455 -56.917336c-0.80161285 0 -1.5574493 0.20654678 -2.175949 0.61866665c-2.473999 1.856 -3.0924988 4.3306665 -1.8554993 6.805334l14.225502 24.746668c-24.121502 13.610664 -39.584003 38.35733 -41.439503 65.57867l170.0875 0c-2.473999 -27.221336 -17.936493 -51.968002 -42.058 -65.57867l14.225494 -24.746668c1.2370148 -2.4746675 0.61849976 -5.568001 -1.8554993 -6.805334c-0.8249817 -0.41211987 -1.6490021 -0.61866665 -2.4506226 -0.61866665c-1.6042023 0 -3.1158752 0.82521343 -4.3528748 2.4746666l-14.225494 24.746666c-11.132996 -4.639511 -22.884506 -6.9602413 -34.636 -6.9602413c-11.751503 0 -23.502998 2.3207302 -34.636 6.9602413l-14.225502 -24.746666c-1.2369995 -1.6494532 -3.0233383 -2.4746666 -4.627548 -2.4746666z" fill-rule="evenodd"/><path fill="#d8674d" d="m128.00093 126.21591c-30.77111 0 -61.541237 11.754669 -85.044235 35.263992l15.462502 15.466675c19.173496 -19.487518 44.223232 -29.232254 69.34895 -29.232254c25.126678 0 50.331284 9.744736 69.81355 29.232254l15.462494 -15.466675c-23.50299 -23.509323 -54.273132 -35.263992 -85.04326 -35.263992zm-0.23278809 43.46158c-19.559212 0 -39.04245 7.578903 -53.88645 22.735748l15.462502 15.466675c10.514496 -10.826187 24.431236 -16.24025 38.42395 -16.24025c13.993683 0 28.065292 5.4140625 38.88855 16.24025l15.462494 -15.466675c-15.152756 -15.156845 -34.790863 -22.735748 -54.351044 -22.735748zm0 43.925323c-8.426216 0 -16.776451 3.2482452 -22.961449 9.743759l22.884499 22.89067l23.503006 -22.89067c-6.4937744 -6.495514 -14.998871 -9.743759 -23.426056 -9.743759z" fill-rule="evenodd"/></g></svg>